{"title":"Les.Vacances.du.Petit.Nicolas.2014.BRRip.x264.HORiZON-ArtSubs","uid":11426035,"size":1804705939,"categoryP":"video","categoryS":"movies","magnet":"?xt=urn:btih:2588534220ebe29301436dec7fecfad16c92543c&amp;dn=Les.Vacances.du.Petit.Nicolas.2014.BRRip.x264.HORiZON-ArtSubs&amp;tr=udp%3A%2F%2Ftracker.openbittorrent.com%3A80&amp;tr=udp%3A%2F%2Fopen.demonii.com%3A1337&amp;tr=udp%3A%2F%2Ftracker.coppersurfer.tk%3A6969&amp;tr=udp%3A%2F%2Fexodus.desync.com%3A6969","seeders":17,"leechers":0,"uploader":"lletaif","files":-1,"time":1415664822,"description":"Title:\nLes vacances du petit Nicolas Aka Nicholas on Holiday\n\n\nCountry:\nFrance, 2014\n\n\nLanguage:\nFrench\n\n\nNo Subtitle\n\n\nIMDB: &lt;a href=&quot;\nhttp://www.imdb.com/title/tt3019796/?ref_=nv_sr_2&quot; rel=&quot;nofollow&quot; target=&quot;_NEW&quot;&gt;\nhttp://www.imdb.com/title/tt3019796/?ref_=nv_sr_2&lt;/a&gt;\n\n\nPlot:\nWhen the summer holidays begins, Nikolas and his family will find themselves in a hotel near the beach and then a whole new series of adventures will begin.\n\n\n\nMedia Info:\n\nGeneral\nUnique ID                                : 230466804983025907108750498391904132390 (0xAD624AC66FD68A6E84B44F7E96029D26)\nComplete name                            : Les.Vacances.du.Petit.Nicolas.2014.BRRip.x264.HORiZON-ArtSubs.mkv\nFormat                                   : Matroska\nFormat version                           : Version 2\nFile size                                : 1.68 GiB\nDuration                                 : 1h 37mn\nOverall bit rate                         : 2 478 Kbps\nMovie name                               : mgl-lvdpn-720p\nEncoded date                             : UTC 2014-11-10 22:07:31\nWriting application                      : DVDFab 9.1.4.0\nWriting library                          : libebml v0.7.8 + libmatroska v0.8.1\n\nVideo\nID                                       : 1\nFormat                                   : AVC\nFormat/Info                              : Advanced Video Codec\nFormat profile                           : &lt;a class=&quot;__cf_email__&quot; href=&quot;/cdn-cgi/l/email-protection&quot; data-cfemail=&quot;165e7f717e565a223827&quot;&gt;[email&amp;#160;protected]&lt;/a&gt;&lt;script cf-hash='f9e31' type=&quot;text/javascript&quot;&gt;\n/* &lt;![CDATA[ */!function(){try{var t=&quot;currentScript&quot;in document?document.currentScript:function(){for(var t=document.getElementsByTagName(&quot;script&quot;),e=t.length;e--;)if(t[e].getAttribute(&quot;cf-hash&quot;))return t[e]}();if(t&amp;&amp;t.previousSibling){var e,r,n,i,c=t.previousSibling,a=c.getAttribute(&quot;data-cfemail&quot;);if(a){for(e=&quot;&quot;,r=parseInt(a.substr(0,2),16),n=2;a.length-n;n+=2)i=parseInt(a.substr(n,2),16)^r,e+=String.fromCharCode(i);e=document.createTextNode(e),c.parentNode.replaceChild(e,c)}}}catch(u){}}();/* ]]&gt; */&lt;/script&gt;\nFormat settings, CABAC                   : Yes\nFormat settings, ReFrames                : 2 frames\nCodec ID                                 : V_MPEG4/ISO/AVC\nDuration                                 : 1h 37mn\nBit rate                                 : 1 981 Kbps\nWidth                                    : 1 280 pixels\nHeight                                   : 688 pixels\nDisplay aspect ratio                     : 1.85:1\nFrame rate mode                          : Constant\nFrame rate                               : 23.976 fps\nColor space                              : YUV\nChroma subsampling                       : 4:2:0\nBit depth                                : 8 bits\nScan type                                : Progressive\nBits/(Pixel*Frame)                       : 0.094\nStream size                              : 1.34 GiB (80%)\nWriting library                          : x264 core\nDefault                                  : Yes\nForced                                   : No\nColor primaries                          : BT.709\nTransfer characteristics                 : BT.709\nMatrix coefficients                      : BT.709\n\nAudio\nID                                       : 2\nFormat                                   : AC-3\nFormat/Info                              : Audio Coding 3\nMode extension                           : CM (complete main)\nFormat settings, Endianness              : Big\nCodec ID                                 : A_AC3\nDuration                                 : 1h 37mn\nBit rate mode                            : Constant\nBit rate                                 : 448 Kbps\nChannel(s)                               : 6 channels\nChannel positions                        : Front: L C R, Side: L R, LFE\nSampling rate                            : 48.0 KHz\nBit depth                                : 16 bits\nCompression mode                         : Lossy\nStream size                              : 311 MiB (18%)\nLanguage                                 : French\nDefault                                  : Yes\nForced                                   : No","torrent":{"xt":"urn:btih:2588534220ebe29301436dec7fecfad16c92543c","amp;dn":"Les.Vacances.du.Petit.Nicolas.2014.BRRip.x264.HORiZON-ArtSubs","amp;tr":["udp%3A%2F%2Ftracker.openbittorrent.com%3A80","udp%3A%2F%2Fopen.demonii.com%3A1337","udp%3A%2F%2Ftracker.coppersurfer.tk%3A6969","udp%3A%2F%2Fexodus.desync.com%3A6969"],"infoHash":"2588534220ebe29301436dec7fecfad16c92543c","infoHashBuffer":{"type":"Buffer","data":[37,136,83,66,32,235,226,147,1,67,109,236,127,236,250,209,108,146,84,60]},"announce":[],"urlList":[]}}